<svg width="230" height="26" viewBox="0 0 230 26" fill="none" xmlns="http://www.w3.org/2000/svg">
<g clip-path="url(#clip0_425_2900)">
<path d="M210.775 6.34993C209.242 7.51979 208.162 9.18647 207.722 11.0646C207.278 12.7952 207.418 14.6242 208.121 16.2667C208.824 17.9093 210.051 19.2731 211.61 20.1459C213.146 20.9509 214.902 21.2336 216.613 20.9511C218.324 20.6686 219.896 19.8362 221.092 18.5801C222.187 17.3934 222.903 15.9067 223.148 14.3104C223.393 12.7141 223.155 11.081 222.466 9.6206C221.196 6.48042 218.613 5.06257 215.307 5.01037C211.732 4.94079 208.157 5.01037 204.295 5.01037C204.895 4.39278 205.313 3.90566 205.782 3.48813C212.315 -2.3921 223.666 -0.548019 227.668 7.03713C228.63 8.90332 229.125 10.9752 229.111 13.0748C229.097 15.1745 228.573 17.2394 227.585 19.0921C226.597 20.9449 225.174 22.5303 223.439 23.7123C221.703 24.8942 219.707 25.6375 217.621 25.8782C213.367 26.3479 209.462 25.5999 206.078 22.8337C204.064 21.1002 202.63 18.7897 201.972 16.2148C201.314 13.64 201.463 10.9251 202.399 8.43761C202.558 7.88121 202.883 7.3866 203.33 7.01979C203.778 6.65299 204.327 6.43144 204.904 6.38474C206.809 6.27165 208.688 6.34993 210.775 6.34993Z" fill="#FFA21A"/>
<path d="M29.6106 4.99297C31.3061 2.81107 33.687 1.26369 36.3694 0.600206C42.0756 -0.791564 47.2861 0.104381 51.3048 4.67113C57.7418 11.9866 53.6186 23.7558 44.0415 25.626C39.1877 26.5741 34.6905 25.8086 30.898 22.4162C29.0342 20.6467 27.7345 18.3662 27.1619 15.8608C26.5894 13.3554 26.7694 10.7367 27.6795 8.33321C27.8648 7.7648 28.2204 7.26712 28.6981 6.90767C29.1758 6.54822 29.7525 6.34439 30.35 6.32385C32.1767 6.24556 34.0121 6.32385 35.8736 6.32385C35.5865 6.64569 35.3342 6.95886 35.0559 7.23721C30.7675 11.5256 32.716 19.2325 38.5353 20.72C41.632 21.5203 44.459 20.8592 46.5641 18.354C47.6041 17.1649 48.2703 15.6955 48.4792 14.1296C48.6881 12.5638 48.4304 10.9711 47.7384 9.55103C46.451 6.53263 43.9545 5.08866 40.7274 5.02777C37.0914 4.94078 33.4728 4.99297 29.6106 4.99297Z" fill="#FFA21A"/>
<path d="M92.6484 25.4694C93.4458 22.256 95.3195 19.4125 97.9577 17.4121C100.596 15.4117 103.84 14.375 107.149 14.4744C113.142 14.6484 119.223 19.6936 120.362 25.4781C118.785 25.5537 117.205 25.5333 115.63 25.4172C114.911 25.2135 114.291 24.7521 113.89 24.1211C110.046 18.7454 103.008 18.7541 99.181 24.1211C98.7942 24.7306 98.1966 25.1764 97.5022 25.3737C95.8872 25.4937 94.2669 25.5256 92.6484 25.4694Z" fill="#FFA21A"/>
<path d="M116.839 17.0753C115.013 15.5474 112.906 14.3893 110.637 13.6654C109.873 13.3047 109.258 12.6897 108.898 11.9257C108.028 10.186 107.367 8.35933 106.523 6.34127C105.81 8.08098 105.105 9.54233 104.566 11.0907C104.317 11.8236 103.895 12.4852 103.334 13.0186C102.773 13.552 102.092 13.9411 101.347 14.1526C99.5551 14.9243 97.8685 15.9211 96.3281 17.1188C96.4064 16.8926 96.476 16.6664 96.5717 16.4403C98.8072 11.4386 101.051 6.43695 103.261 1.41788C103.337 1.12297 103.52 0.866588 103.773 0.698006C104.027 0.529424 104.334 0.460515 104.635 0.504512C105.992 0.574101 107.349 0.504528 108.706 0.548021C108.894 0.559737 109.077 0.612527 109.243 0.702704C109.408 0.792882 109.551 0.918257 109.663 1.06994C112.073 6.37606 114.447 11.7257 116.839 17.0753Z" fill="#FFA21A"/>
<path d="M82.2277 10.9602C80.8824 13.2102 79.5399 15.4631 78.2003 17.719C77.3305 19.1542 76.5041 20.5982 75.6342 22.0074C75.4296 22.3052 75.1556 22.5487 74.8359 22.717C74.5161 22.8853 74.1602 22.9732 73.7988 22.9732C73.4375 22.9732 73.0816 22.8853 72.7618 22.717C72.4421 22.5487 72.1681 22.3052 71.9635 22.0074C68.0143 15.553 64.0826 9.0871 60.1682 2.60957C59.8718 1.91517 59.6587 1.18815 59.5332 0.443641C60.9772 0.443641 62.195 0.356655 63.3867 0.443641C63.8856 0.532388 64.3549 0.743253 64.7525 1.05744C65.1502 1.37162 65.4639 1.77933 65.6657 2.24422C68.1767 6.44853 70.6993 10.6441 73.2334 14.831C73.4074 15.1268 73.5988 15.4052 73.8597 15.814C74.1033 15.4573 74.3033 15.1964 74.4686 14.9441C76.9738 10.734 79.4964 6.54133 81.9494 2.31383C82.2493 1.68271 82.7373 1.15993 83.3463 0.817275C83.9553 0.474623 84.6554 0.328893 85.3505 0.400132C86.1421 0.452324 86.9337 0.400132 87.8035 0.400132C87.8035 0.77417 87.8818 1.06992 87.8905 1.37437C87.8905 9.0117 87.8905 16.6578 87.9949 24.3038C87.9949 25.2345 87.7861 25.6695 86.7945 25.5216C86.4205 25.4694 86.029 25.5216 85.6463 25.5216C85.2186 25.541 84.7916 25.4698 84.3934 25.3125C83.9952 25.1553 83.6347 24.9156 83.3357 24.6092C83.0367 24.3028 82.8059 23.9366 82.6584 23.5346C82.5109 23.1327 82.4501 22.7041 82.48 22.277C82.48 18.9107 82.48 15.5356 82.48 12.1693V11.0298L82.2277 10.9602Z" fill="#FFA21A"/>
<path d="M59.8022 25.5477C59.8022 25.2171 59.75 25.0432 59.75 24.8692V4.67113C59.837 4.67113 59.9414 4.67113 59.9588 4.67113C61.6028 7.35898 63.2642 10.0381 64.8734 12.7521C65.0948 13.2218 65.1993 13.7381 65.1779 14.2569C65.1779 16.9274 65.1779 19.5979 65.1779 22.277C65.2179 22.7123 65.1617 23.1511 65.0133 23.5623C64.8649 23.9735 64.628 24.3471 64.3193 24.6566C64.0106 24.9662 63.6377 25.2041 63.2269 25.3535C62.8161 25.503 62.3775 25.5604 61.942 25.5216C61.22 25.5564 60.5329 25.5477 59.8022 25.5477Z" fill="#FFA21A"/>
<path d="M130.347 6.28908C129.511 6.87305 128.8 7.6176 128.255 8.47933C127.71 9.34105 127.342 10.3027 127.172 11.3081C126.685 14.5788 127.355 17.5363 130.225 19.5109C131.498 20.4412 133.017 20.9733 134.592 21.0398C136.167 21.1064 137.726 20.7045 139.072 19.8849C141.255 18.6932 142.073 18.7193 143.891 20.3807C144.274 20.72 144.656 21.0679 145.074 21.4593C143.185 23.7949 140.474 25.3198 137.497 25.7217C132.678 26.4871 128.233 25.6173 124.728 22.0248C120.883 18.0843 120.257 13.3262 121.936 8.22884C122.094 7.68507 122.421 7.2058 122.87 6.86024C123.319 6.51468 123.866 6.32074 124.432 6.30646C126.328 6.22818 128.225 6.28908 130.347 6.28908Z" fill="#FFA21A"/>
<path d="M145.048 4.48848C144.717 4.81033 144.404 5.07998 144.117 5.35833C142.56 7.01106 141.072 7.30679 138.898 6.01941C137.715 5.38136 136.397 5.03542 135.053 5.0104C131.687 4.87122 128.32 4.96689 124.954 4.96689H123.91C128.329 -1.29608 140.116 -1.78318 145.048 4.48848Z" fill="#FFA21A"/>
<path d="M24.0254 21.468C22.142 23.7764 19.4591 25.2917 16.5098 25.7129C11.6125 26.5045 7.09797 25.6173 3.56636 21.9291C-0.174024 18.0147 -0.782937 13.3262 0.861091 8.28102C1.01032 7.73561 1.32937 7.2519 1.77199 6.9C2.2146 6.5481 2.75779 6.3463 3.3228 6.32384C5.21039 6.22816 7.11536 6.32384 9.2639 6.32384C7.64976 7.4824 6.53652 9.21135 6.14983 11.1602C5.59312 14.4744 6.22811 17.4667 9.10734 19.4935C10.4151 20.4656 11.988 21.0163 13.6165 21.0722C15.2451 21.1282 16.852 20.6867 18.2234 19.8066C20.0588 18.7541 21.1288 18.8324 22.7032 20.2937L24.0254 21.468Z" fill="#FFA21A"/>
<path d="M2.7832 4.9843C7.69789 -1.44394 18.9712 -1.65272 23.9903 4.50586C23.3342 5.14898 22.6461 5.75866 21.9287 6.33257C21.456 6.69998 20.8774 6.90518 20.2788 6.91772C19.6803 6.93025 19.0936 6.74945 18.6059 6.40214C16.9756 5.3816 15.0734 4.88103 13.1519 4.96689C9.75943 5.01038 6.35831 4.9843 2.7832 4.9843Z" fill="#FFA21A"/>
<path d="M175.754 18.5018C175.111 15.814 176.424 13.735 179.312 13.8568C182.052 13.9699 184.797 13.9263 187.532 13.7263C188.068 13.7298 188.598 13.623 189.091 13.4127C189.583 13.2025 190.027 12.8932 190.395 12.5041C190.763 12.1149 191.047 11.6543 191.229 11.1508C191.412 10.6473 191.489 10.1116 191.455 9.57713C191.509 9.04393 191.45 8.50545 191.283 7.99627C191.116 7.48709 190.844 7.01845 190.486 6.62039C190.127 6.22234 189.689 5.90365 189.2 5.68481C188.711 5.46597 188.181 5.3518 187.645 5.34962C185.662 5.15825 183.635 5.34962 181.461 5.34962V9.05521C181.461 11.543 180.321 12.6651 177.825 12.6651H175.676V0.400131C176.337 0.400131 176.946 0.400131 177.564 0.400131C181.382 0.452323 185.21 0.356647 189.02 0.626302C190.897 0.696175 192.701 1.37199 194.163 2.55269C195.624 3.73338 196.664 5.35547 197.127 7.17632C198.04 11.3429 196.674 15.3095 192.656 17.2667C192.536 17.3413 192.428 17.4321 192.334 17.5363L197.936 25.5912C195.787 25.4868 193.908 25.4955 192.055 25.2519C191.49 25.1736 190.916 24.4778 190.524 23.9471C189.376 22.4162 188.298 20.8418 187.254 19.2412C187.116 18.9887 186.908 18.7819 186.655 18.6459C186.401 18.51 186.114 18.4508 185.827 18.4757C182.835 18.4757 179.843 18.4757 176.859 18.4757L175.754 18.5018Z" fill="#FFA21A"/>
<path d="M181.375 19.7805C181.44 20.8785 181.44 21.9793 181.375 23.0773C181.294 23.6868 181.012 24.252 180.574 24.6837C180.136 25.1153 179.567 25.3887 178.956 25.4607C178.752 25.4914 178.546 25.5088 178.339 25.5129C175.642 25.5912 175.642 25.5912 175.625 24.5821C175.538 21.2419 176.434 19.8414 178.687 19.7892C179.548 19.7631 180.444 19.7805 181.375 19.7805Z" fill="#FFA21A"/>
<path d="M149.642 18.5279V17.0579C149.605 16.6309 149.662 16.201 149.808 15.7982C149.954 15.3953 150.187 15.0292 150.489 14.7254C150.791 14.4215 151.156 14.1871 151.558 14.0386C151.96 13.8901 152.39 13.8311 152.817 13.8655C155.592 13.8655 158.375 13.8655 161.159 13.7785C164.368 13.648 166.091 11.256 165.299 8.22016C164.856 6.48044 163.438 5.48881 161.106 5.22785C160.758 5.22785 160.411 5.22785 160.063 5.22785H155.487C155.487 6.64571 155.487 7.98529 155.487 9.32486C155.531 9.7698 155.476 10.2189 155.327 10.6403C155.178 11.0618 154.938 11.4454 154.624 11.764C154.311 12.0826 153.931 12.3284 153.512 12.4841C153.093 12.6398 152.645 12.7016 152.199 12.6651C151.408 12.6651 150.616 12.6651 149.746 12.6651V0.521925C149.958 0.477832 150.173 0.448759 150.39 0.434934C153.939 0.434934 157.488 0.391441 161.037 0.434934C163.843 0.367133 166.581 1.30851 168.752 3.08798C172.684 6.41083 172.91 15.4486 165.43 17.8755C164.144 18.2943 162.806 18.5258 161.454 18.5627C157.731 18.6584 154.008 18.5627 150.294 18.5627C150.085 18.5888 149.92 18.554 149.642 18.5279Z" fill="#FFA21A"/>
<path d="M149.712 25.4259C149.172 20.5286 150.634 19.4326 155.322 19.9458C156.053 24.6343 154.374 26.1479 149.712 25.4259Z" fill="#FFA21A"/>
</g>
<defs>
<clipPath id="clip0_425_2900">
<rect width="229.129" height="26" fill="white"/>
</clipPath>
</defs>
</svg>
